# xmcd
#
# Track frame offsets: 
#        150
#        21160
#        74834
#        94962
#        101950
#        105525
#        125501
#        166055
#
# Disc length: 2414 seconds
#
# Revision: 7
# Processed by: cddbd v1.5.1PL0 Copyright (c) Steve Scherf et al.
# Submitted via: ExactAudioCopy v0.95a5
#
DISCID=6e096c08
DTITLE=Johnny Winter And - Live
DYEAR=1971
DGENRE=R&B
TTITLE0=Good Morning Little School Girl
TTITLE1=It's My Own Fault
TTITLE2=Jumpin' Jack Flash - Rock And Roll Medley:
TTITLE3=Great Balls Of Fire /
TTITLE4=Long Tall Sally /
TTITLE5=Whole Lotta Shakin' Goin' On
TTITLE6=Mean Town Blues
TTITLE7=Johnny B.Goode
EXTD=YEAR: 1971
EXTT0=
EXTT1=
EXTT2=
EXTT3=
EXTT4=
EXTT5=
EXTT6=
EXTT7=
PLAYORDER=
